PathFileType	4	(X/Y/Z)	C:\Users\italobelli\Desktop\GitHub\PTbot_officialCBL\Personal_Results\SHRUG22_noisy1.trc
DataRate	CameraRate	NumFrames	NumMarkers	Units	OrigDataRate	OrigDataStartFrame	OrigNumFrames
110.888889	110.888889	21	9	m	110.888889	438	500
Frame#	Time		gu		centelbow		EpL		centpxt8		centijc7		ij		ts		aa		ai
			X1	Y1	Z1	X2	Y2	Z2	X3	Y3	Z3	X4	Y4	Z4	X5	Y5	Z5	X6	Y6	Z6	X7	Y7	Z7	X8	Y8	Z8	X9	Y9	Z9

438	3.9409	-0.098389	-0.013101	0.15788	-0.14201	-0.25294	0.17662	-0.12552	-0.2486	0.20399	-0.046816	-0.15316	-0.008669	-0.046816	0.031938	-0.008669	0	0	0	-0.13892	0.037258	0.044886	-0.12074	0.025681	0.16227	-0.16883	-0.072254	0.044138
439	3.9499	-0.098263	-0.013224	0.15794	-0.14195	-0.25305	0.17647	-0.12545	-0.24871	0.20384	-0.046816	-0.15316	-0.008669	-0.046816	0.031938	-0.008669	0	0	0	-0.13893	0.037189	0.044987	-0.12064	0.025584	0.16233	-0.16884	-0.072322	0.044233
440	3.9589	-0.098142	-0.01334	0.15799	-0.1419	-0.25314	0.17633	-0.12538	-0.24881	0.20368	-0.046816	-0.15316	-0.008669	-0.046816	0.031938	-0.008669	0	0	0	-0.13894	0.037123	0.045083	-0.12054	0.025494	0.1624	-0.16885	-0.072388	0.044322
441	3.9679	-0.098026	-0.013449	0.15804	-0.14184	-0.25323	0.17618	-0.12531	-0.24891	0.20352	-0.046816	-0.15316	-0.008669	-0.046816	0.031938	-0.008669	0	0	0	-0.13896	0.03706	0.045175	-0.12045	0.02541	0.16246	-0.16886	-0.072451	0.044406
442	3.977	-0.097916	-0.01355	0.15809	-0.14179	-0.25332	0.17602	-0.12524	-0.249	0.20336	-0.046816	-0.15316	-0.008669	-0.046816	0.031938	-0.008669	0	0	0	-0.13897	0.036998	0.045261	-0.12036	0.025333	0.16252	-0.16886	-0.072511	0.044483
443	3.986	-0.097811	-0.013644	0.15813	-0.14174	-0.2534	0.17586	-0.12517	-0.24909	0.20319	-0.046816	-0.15316	-0.008669	-0.046816	0.031938	-0.008669	0	0	0	-0.13898	0.03694	0.045343	-0.12028	0.025263	0.16257	-0.16887	-0.072568	0.044553
444	3.995	-0.097712	-0.01373	0.15818	-0.14168	-0.25347	0.17569	-0.12511	-0.24917	0.20302	-0.046816	-0.15316	-0.008669	-0.046816	0.031938	-0.008669	0	0	0	-0.13899	0.036884	0.04542	-0.1202	0.025199	0.16262	-0.16888	-0.072622	0.044616
445	4.004	-0.097618	-0.01381	0.15822	-0.14163	-0.25354	0.17552	-0.12505	-0.24924	0.20284	-0.046816	-0.15316	-0.008669	-0.046816	0.031938	-0.008669	0	0	0	-0.13899	0.036831	0.045491	-0.12013	0.025142	0.16267	-0.16888	-0.072673	0.044673
446	4.013	-0.097529	-0.013886	0.15826	-0.14157	-0.25361	0.17535	-0.12499	-0.24932	0.20267	-0.046816	-0.15316	-0.008669	-0.046816	0.031938	-0.008669	0	0	0	-0.139	0.03678	0.045561	-0.12006	0.025089	0.16272	-0.16889	-0.072722	0.044728
447	4.022	-0.097443	-0.013961	0.1583	-0.14152	-0.25368	0.17518	-0.12494	-0.24939	0.20249	-0.046816	-0.15316	-0.008669	-0.046816	0.031938	-0.008669	0	0	0	-0.13901	0.036732	0.045628	-0.12	0.025037	0.16276	-0.16889	-0.072768	0.044782
448	4.0311	-0.097362	-0.014035	0.15834	-0.14146	-0.25375	0.17501	-0.12488	-0.24946	0.20232	-0.046816	-0.15316	-0.008669	-0.046816	0.031938	-0.008669	0	0	0	-0.13902	0.036686	0.045693	-0.11993	0.024988	0.1628	-0.1689	-0.072812	0.044836
449	4.0401	-0.097284	-0.014106	0.15839	-0.14141	-0.25382	0.17484	-0.12482	-0.24954	0.20214	-0.046816	-0.15316	-0.008669	-0.046816	0.031938	-0.008669	0	0	0	-0.13903	0.036642	0.045756	-0.11987	0.024942	0.16285	-0.16891	-0.072854	0.04489
450	4.0491	-0.097211	-0.014176	0.15843	-0.14135	-0.25389	0.17467	-0.12476	-0.24961	0.20196	-0.046816	-0.15316	-0.008669	-0.046816	0.031938	-0.008669	0	0	0	-0.13904	0.036601	0.045817	-0.11982	0.024898	0.16289	-0.16891	-0.072894	0.044943
451	4.0581	-0.097141	-0.014244	0.15847	-0.1413	-0.25395	0.17449	-0.1247	-0.24968	0.20179	-0.046816	-0.15316	-0.008669	-0.046816	0.031938	-0.008669	0	0	0	-0.13904	0.036562	0.045876	-0.11976	0.024856	0.16293	-0.16892	-0.072931	0.044995
452	4.0671	-0.097075	-0.01431	0.15851	-0.14124	-0.25402	0.17432	-0.12464	-0.24976	0.20161	-0.046816	-0.15316	-0.008669	-0.046816	0.031938	-0.008669	0	0	0	-0.13905	0.036525	0.045933	-0.11971	0.024816	0.16297	-0.16892	-0.072967	0.045047
453	4.0762	-0.097012	-0.014374	0.15854	-0.14119	-0.25409	0.17415	-0.12458	-0.24983	0.20144	-0.046816	-0.15316	-0.008669	-0.046816	0.031938	-0.008669	0	0	0	-0.13906	0.036491	0.045988	-0.11966	0.02478	0.16301	-0.16893	-0.073	0.045098
454	4.0852	-0.096953	-0.014436	0.15858	-0.14113	-0.25416	0.17398	-0.12452	-0.2499	0.20126	-0.046816	-0.15316	-0.008669	-0.046816	0.031938	-0.008669	0	0	0	-0.13907	0.036459	0.04604	-0.11961	0.024745	0.16305	-0.16894	-0.073032	0.045148
455	4.0942	-0.096898	-0.014496	0.15862	-0.14108	-0.25423	0.1738	-0.12446	-0.24997	0.20109	-0.046816	-0.15316	-0.008669	-0.046816	0.031938	-0.008669	0	0	0	-0.13908	0.036429	0.046091	-0.11957	0.024713	0.16309	-0.16895	-0.073061	0.045198
456	4.1032	-0.096847	-0.014554	0.15866	-0.14102	-0.25429	0.17363	-0.1244	-0.25004	0.20091	-0.046816	-0.15316	-0.008669	-0.046816	0.031938	-0.008669	0	0	0	-0.13908	0.036401	0.046139	-0.11953	0.024684	0.16313	-0.16895	-0.073088	0.045247
457	4.1122	-0.096799	-0.01461	0.1587	-0.14097	-0.25436	0.17346	-0.12434	-0.25011	0.20074	-0.046816	-0.15316	-0.008669	-0.046816	0.031938	-0.008669	0	0	0	-0.13909	0.036375	0.046185	-0.11949	0.024657	0.16317	-0.16896	-0.073113	0.045295
458	4.1212	-0.096755	-0.014663	0.15873	-0.14092	-0.25443	0.17328	-0.12428	-0.25018	0.20056	-0.046816	-0.15316	-0.008669	-0.046816	0.031938	-0.008669	0	0	0	-0.1391	0.036351	0.046229	-0.11945	0.024633	0.1632	-0.16897	-0.073137	0.045343
